<?xml version="1.0" encoding="UTF-8"?>
<svg version="1.1" xmlns="http://www.w3.org/2000/svg" width="300" height="293">
<path d="M0 0 C99 0 198 0 300 0 C300 96.69 300 193.38 300 293 C201 293 102 293 0 293 C0 196.31 0 99.62 0 0 Z " fill="#FEFEFE" transform="translate(0,0)"/>
<path d="M0 0 C1.45884633 0.00169318 2.91769778 0.00074099 4.37654114 -0.00265503 C8.3311136 -0.00437543 12.28459246 0.03088014 16.23891091 0.07278872 C20.37350677 0.11031614 24.50812816 0.11382263 28.64286804 0.12094116 C36.46987191 0.13958422 44.2963725 0.18881353 52.12315482 0.2490381 C61.03475915 0.31612037 69.94638761 0.34909649 78.8581816 0.37921071 C97.18788484 0.44191336 115.51711972 0.54743753 133.84643555 0.68115234 C147.9779158 143.49981991 147.9779158 143.49981991 114.82592773 184.50244141 C91.40334679 211.43313497 64.79503701 223.14842889 29.71415836 225.59876996 C-9.24296553 228.03543939 -48.36843165 225.5188253 -87.15356445 221.68115234 C-87.36404796 202.670398 -87.5226313 183.65988092 -87.619874 164.64820194 C-87.66623115 155.82016552 -87.72940138 146.99285415 -87.83251953 138.1652832 C-87.92238218 130.46878149 -87.98032512 122.77280497 -88.00036091 115.07579321 C-88.01206884 111.00204169 -88.03946956 106.92979226 -88.10513496 102.85652351 C-88.16652414 99.01717135 -88.18501148 95.17993003 -88.17153358 91.34013367 C-88.17399661 89.93603449 -88.19172906 88.53186005 -88.22641373 87.12818718 C-88.47546129 76.52338253 -88.47546129 76.52338253 -85.15156364 71.89111137 C-82.91531988 69.66143483 -80.58915204 67.68556547 -78.15356445 65.68115234 C-77.49356445 64.69115234 -76.83356445 63.70115234 -76.15356445 62.68115234 C-75.49356445 62.68115234 -74.83356445 62.68115234 -74.15356445 62.68115234 C-73.82356445 61.69115234 -73.49356445 60.70115234 -73.15356445 59.68115234 C-72.49356445 59.68115234 -71.83356445 59.68115234 -71.15356445 59.68115234 C-70.92668945 59.10365234 -70.69981445 58.52615234 -70.46606445 57.93115234 C-68.82440338 55.11687622 -66.71797393 53.65377502 -64.15356445 51.68115234 C-63.82356445 51.02115234 -63.49356445 50.36115234 -63.15356445 49.68115234 C-62.49356445 49.68115234 -61.83356445 49.68115234 -61.15356445 49.68115234 C-60.82356445 48.69115234 -60.49356445 47.70115234 -60.15356445 46.68115234 C-59.49356445 46.68115234 -58.83356445 46.68115234 -58.15356445 46.68115234 C-57.82356445 45.69115234 -57.49356445 44.70115234 -57.15356445 43.68115234 C-56.49356445 43.68115234 -55.83356445 43.68115234 -55.15356445 43.68115234 C-54.82356445 42.69115234 -54.49356445 41.70115234 -54.15356445 40.68115234 C-52.21606445 38.49365234 -52.21606445 38.49365234 -50.15356445 36.68115234 C-49.49356445 36.68115234 -48.83356445 36.68115234 -48.15356445 36.68115234 C-47.82356445 35.69115234 -47.49356445 34.70115234 -47.15356445 33.68115234 C-46.49356445 33.68115234 -45.83356445 33.68115234 -45.15356445 33.68115234 C-44.82356445 32.69115234 -44.49356445 31.70115234 -44.15356445 30.68115234 C-42.68783826 29.443428 -41.21825854 28.2092623 -39.7121582 27.02099609 C-37.91234509 25.5573206 -37.91234509 25.5573206 -35.90356445 22.86865234 C-35.32606445 22.14677734 -34.74856445 21.42490234 -34.15356445 20.68115234 C-33.49356445 20.68115234 -32.83356445 20.68115234 -32.15356445 20.68115234 C-31.65856445 19.19615234 -31.65856445 19.19615234 -31.15356445 17.68115234 C-30.49356445 17.68115234 -29.83356445 17.68115234 -29.15356445 17.68115234 C-28.65856445 16.19615234 -28.65856445 16.19615234 -28.15356445 14.68115234 C-27.49356445 14.68115234 -26.83356445 14.68115234 -26.15356445 14.68115234 C-25.92668945 14.10365234 -25.69981445 13.52615234 -25.46606445 12.93115234 C-23.81269516 10.09680498 -21.72392501 8.71353046 -19.15356445 6.68115234 C-18.56505203 5.66137299 -17.97653961 4.64159363 -17.37019348 3.59091187 C-13.15284053 -1.48793555 -6.02404554 -0.09748568 0 0 Z " fill="#0CA9E3" transform="translate(128.153564453125,34.31884765625)"/>
<path d="M0 0 C4.54563737 0.06107777 9.09162456 0.0832606 13.63755798 0.11226654 C20.48205806 0.16014172 27.32432749 0.25616718 34.16894531 0.34332275 C34.16894531 10.90332275 34.16894531 21.46332275 34.16894531 32.34332275 C27.39556641 32.38199463 27.39556641 32.38199463 20.48535156 32.42144775 C17.60964526 32.44664043 14.73404162 32.47299165 11.85839844 32.503479 C7.30281301 32.55166782 2.7474655 32.59576681 -1.80834961 32.61431885 C-5.48503889 32.62956099 -9.161102 32.66413767 -12.83751106 32.71163177 C-14.23393343 32.72636836 -15.63044524 32.7343593 -17.02694511 32.7352066 C-25.2982224 32.74526413 -31.55030805 33.35991223 -38.83105469 37.34332275 C-39.82105469 37.67332275 -40.81105469 38.00332275 -41.83105469 38.34332275 C-42.16105469 39.33332275 -42.49105469 40.32332275 -42.83105469 41.34332275 C-43.49105469 41.34332275 -44.15105469 41.34332275 -44.83105469 41.34332275 C-49.10091995 51.71299555 -51.0964398 62.56761301 -46.83105469 73.34332275 C-44.32285252 79.19579448 -41.23110144 84.53734252 -35.20605469 87.15582275 C-30.74234916 88.72638581 -27.43452455 89.48259563 -22.70727539 89.54864502 C-20.81565422 89.57856285 -20.81565422 89.57856285 -18.88581848 89.60908508 C-17.50949222 89.62606809 -16.13316467 89.64294694 -14.75683594 89.659729 C-13.34864194 89.68030472 -11.94045404 89.70130136 -10.53227234 89.72270203 C-6.82844988 89.77785897 -3.12457227 89.82729629 0.5793457 89.87554932 C4.35991304 89.92581096 8.14040143 89.98142049 11.92089844 90.03668213 C19.33685353 90.14469137 26.75285265 90.24376367 34.16894531 90.34332275 C34.16894531 100.57332275 34.16894531 110.80332275 34.16894531 121.34332275 C17.39009341 121.46364918 17.39009341 121.46364918 10.17871094 121.48980713 C5.27862674 121.5076662 0.37871242 121.52867901 -4.52124023 121.56964111 C-8.47646114 121.60249458 -12.4314996 121.62022988 -16.38684654 121.62795448 C-17.88776199 121.63345178 -19.38866868 121.64418518 -20.88950539 121.66051292 C-37.71339058 121.83608337 -51.18143041 118.46784776 -63.58886719 106.64019775 C-75.62701298 94.30843865 -81.66959046 79.09353505 -82.14355469 62.03082275 C-81.87771762 44.57418836 -76.74821202 28.65239524 -64.55761719 15.9800415 C-60.22527742 11.93603152 -56.35481009 9.41473103 -50.83105469 7.34332275 C-50.50105469 6.68332275 -50.17105469 6.02332275 -49.83105469 5.34332275 C-34.22978917 -1.68893357 -16.70229456 -0.24870609 0 0 Z " fill="#F9FCFE" transform="translate(174.8310546875,78.65667724609375)"/>
<path d="M0 0 C1.45884633 0.00169318 2.91769778 0.00074099 4.37654114 -0.00265503 C8.3311136 -0.00437543 12.28459246 0.03088014 16.23891091 0.07278872 C20.37350677 0.11031614 24.50812816 0.11382263 28.64286804 0.12094116 C36.46987191 0.13958422 44.2963725 0.18881353 52.12315482 0.2490381 C62.70131551 0.32866541 73.279614 0.36103423 83.85799885 0.39605141 C100.52118801 0.45245669 117.18331514 0.57199203 133.84643555 0.68115234 C133.84643555 49.19115234 133.84643555 97.70115234 133.84643555 147.68115234 C133.51643555 147.68115234 133.18643555 147.68115234 132.84643555 147.68115234 C132.84643555 99.50115234 132.84643555 51.32115234 132.84643555 1.68115234 C109.23081055 1.53677734 85.61518555 1.39240234 61.28393555 1.24365234 C53.85047607 1.15929932 46.4170166 1.07494629 38.75830078 0.98803711 C32.04582754 0.98448353 32.04582754 0.98448353 25.33338928 1.00083923 C22.36175265 1.00755005 19.39386465 0.97263295 16.42286682 0.91136169 C-2.990766 -0.13084555 -2.990766 -0.13084555 -19.66567135 8.165061 C-22.41780461 11.17928038 -24.7762679 14.36515461 -27.15356445 17.68115234 C-27.81356445 17.68115234 -28.47356445 17.68115234 -29.15356445 17.68115234 C-28.65856445 16.19615234 -28.65856445 16.19615234 -28.15356445 14.68115234 C-27.49356445 14.68115234 -26.83356445 14.68115234 -26.15356445 14.68115234 C-25.92668945 14.10365234 -25.69981445 13.52615234 -25.46606445 12.93115234 C-23.81269516 10.09680498 -21.72392501 8.71353046 -19.15356445 6.68115234 C-18.56505203 5.66137299 -17.97653961 4.64159363 -17.37019348 3.59091187 C-13.15284053 -1.48793555 -6.02404554 -0.09748568 0 0 Z " fill="#3FBBE9" transform="translate(128.153564453125,34.31884765625)"/>
<path d="M0 0 C0.33 0.99 0.66 1.98 1 3 C-1.61691164 5.67470955 -4.24481708 8.33834481 -6.875 11 C-7.62136719 11.763125 -8.36773437 12.52625 -9.13671875 13.3125 C-9.85214844 14.034375 -10.56757812 14.75625 -11.3046875 15.5 C-11.96452637 16.1703125 -12.62436523 16.840625 -13.30419922 17.53125 C-15 19 -15 19 -17 19 C-16.505 17.515 -16.505 17.515 -16 16 C-15.34 16 -14.68 16 -14 16 C-13.773125 15.4225 -13.54625 14.845 -13.3125 14.25 C-11.67083893 11.43572387 -9.56440947 9.97262267 -7 8 C-6.67 7.34 -6.34 6.68 -6 6 C-5.34 6 -4.68 6 -4 6 C-3.67 5.01 -3.34 4.02 -3 3 C-2.34 3 -1.68 3 -1 3 C-0.67 2.01 -0.34 1.02 0 0 Z " fill="#38B8E8" transform="translate(71,78)"/>
<path d="M0 0 C0 3 0 3 -2.5546875 5.91796875 C-3.65369246 7.01564319 -4.76084093 8.10521047 -5.875 9.1875 C-6.43058594 9.74630859 -6.98617187 10.30511719 -7.55859375 10.88085938 C-11.73305861 15 -11.73305861 15 -14 15 C-12.87994369 11.63983107 -11.62788203 10.30935087 -9 8 C-8.34 8 -7.68 8 -7 8 C-6.67 7.01 -6.34 6.02 -6 5 C-5.34 5 -4.68 5 -4 5 C-3.67 4.01 -3.34 3.02 -3 2 C-2.01 1.34 -1.02 0.68 0 0 Z " fill="#33B6E7" transform="translate(87,63)"/>
<path d="M0 0 C0.66 0 1.32 0 2 0 C0.41332422 3.90285767 -2.13350481 6.33520982 -5.125 9.25 C-6.03507812 10.14203125 -6.94515625 11.0340625 -7.8828125 11.953125 C-8.58148438 12.62859375 -9.28015625 13.3040625 -10 14 C-10 11 -10 11 -8.3203125 9.0625 C-7.59585938 8.381875 -6.87140625 7.70125 -6.125 7 C-3.69915419 4.704576 -1.86499904 2.79749856 0 0 Z " fill="#22B0E5" transform="translate(52,97)"/>
<path d="M0 0 C0.66 0.33 1.32 0.66 2 1 C0.90344712 2.31886772 -0.20253423 3.62990057 -1.3125 4.9375 C-1.92738281 5.66839844 -2.54226562 6.39929688 -3.17578125 7.15234375 C-5 9 -5 9 -8 10 C-6.34908222 5.70761377 -3.26245434 3.1206085 0 0 Z " fill="#C4EAF8" transform="translate(114,91)"/>
<path d="M0 0 C0.66 0 1.32 0 2 0 C0.55922954 3.36179774 -1.24750021 5.59156268 -4 8 C-4.66 8 -5.32 8 -6 8 C-6 6 -6 6 -4.625 4.375 C-3 3 -3 3 -1 3 C-0.67 2.01 -0.34 1.02 0 0 Z " fill="#36B7E7" transform="translate(97,52)"/>
</svg>
