<?xml version="1.0" encoding="UTF-8"?>
<svg version="1.1" xmlns="http://www.w3.org/2000/svg" width="240" height="240">
<path d="M0 0 C1.22847656 0.3403125 2.45695313 0.680625 3.72265625 1.03125 C34.35410459 10.40757752 60.97372133 31.79997003 76.13867188 60.12695312 C89.89575819 87.37137896 94.64499456 122.60818201 85 152 C78.84232277 170.41141867 70.07428008 185.70239547 57 200 C56.28328125 200.79921875 55.5665625 201.5984375 54.828125 202.421875 C44.13863213 213.75434489 31.12641101 221.70590735 17 228 C15.94554687 228.48210937 14.89109375 228.96421875 13.8046875 229.4609375 C-14.36717548 241.34931958 -48.09602151 240.28334892 -76.3125 229.3125 C-90.66061581 223.38438604 -102.57529077 215.447194 -114 205 C-114.79921875 204.28328125 -115.5984375 203.5665625 -116.421875 202.828125 C-131.49088627 188.61409309 -145.07340789 166.76340089 -148 146 C-148.99 146 -149.98 146 -151 146 C-151 126.86 -151 107.72 -151 88 C-150.01 88 -149.02 88 -148 88 C-147.87625 87.34257813 -147.7525 86.68515625 -147.625 86.0078125 C-141.31300645 56.89374224 -121.44973483 31.67034908 -97.00732422 15.27539062 C-69.2000387 -2.39248332 -31.93930668 -8.99086045 0 0 Z M-91 49 C-91.48065918 49.43296387 -91.96131836 49.86592773 -92.45654297 50.31201172 C-103.4969872 60.37201688 -113.32127118 73.28508472 -117 88 C-109.08 88 -101.16 88 -93 88 C-93 92.62 -93 97.24 -93 102 C-43.17 102 6.66 102 58 102 C57.30767637 95.76908734 56.67556537 90.97516733 54.5 85.3125 C54.23936768 84.6304248 53.97873535 83.94834961 53.71020508 83.24560547 C49.03051104 71.59291099 41.70697426 61.98261404 33 53 C32.46246094 52.38898437 31.92492187 51.77796875 31.37109375 51.1484375 C16.70038333 35.04374787 -7.12386927 27.03430853 -28.28125 25.875 C-51.16174459 25.28070144 -74.08810645 33.5890035 -91 49 Z M-93 132 C-93 136.62 -93 141.24 -93 146 C-100.92 146 -108.84 146 -117 146 C-109.06218364 169.54885519 -93.00628511 187.37126071 -71 199 C-48.81320253 209.47435395 -24.02029391 210.94751771 -0.77197266 203.05029297 C21.98874808 194.74518574 39.77107485 178.34911189 51 157 C52.24297588 154.28448363 53.36693762 151.53765661 54.4375 148.75 C54.80814575 147.79444214 54.80814575 147.79444214 55.1862793 146.81958008 C57.04276169 141.67503903 57.36449817 137.71951647 58 132 C8.17 132 -41.66 132 -93 132 Z " fill="#4D4D4C" transform="translate(151,3)"/>
<path d="M0 0 C1.22847656 0.3403125 2.45695313 0.680625 3.72265625 1.03125 C34.35410459 10.40757752 60.97372133 31.79997003 76.13867188 60.12695312 C82.70169745 73.1243175 87.51013984 87.45971923 89 102 C88 103 88 103 85.22436523 103.11352539 C84.01466064 103.10828857 82.80495605 103.10305176 81.55859375 103.09765625 C80.25341797 103.09443359 78.94824219 103.09121094 77.60351562 103.08789062 C76.2148431 103.07953401 74.82617123 103.07106905 73.4375 103.0625 C72.04492344 103.05748666 70.65234519 103.05292347 69.25976562 103.04882812 C65.8398013 103.03699434 62.41992156 103.0205088 59 103 C57.94788815 99.85853724 56.91131366 96.7165893 55.921875 93.5546875 C48.33920384 69.74510006 34.2872083 50.03256897 12 38 C-10.94121664 26.19485589 -35.2818275 23.91138999 -59.95410156 31.76708984 C-71.51243412 35.71772456 -81.9512693 41.7765607 -91 50 C-91.91523437 50.82242188 -92.83046875 51.64484375 -93.7734375 52.4921875 C-103.35963843 61.55311715 -109.38657316 72.18569467 -115 84 C-115.66 85.32 -116.32 86.64 -117 88 C-127.23 88 -137.46 88 -148 88 C-144.47856486 73.91425944 -144.47856486 73.91425944 -141.3125 67 C-140.96437256 66.23163818 -140.61624512 65.46327637 -140.25756836 64.67163086 C-126.66197932 35.47183977 -101.57701315 14.24547957 -71.75 3.1875 C-49.40638848 -4.37926468 -22.94327201 -6.45849201 0 0 Z " fill="#8ED900" transform="translate(151,3)"/>
<path d="M0 0 C1.20970459 0.00523682 2.41940918 0.01047363 3.66577148 0.01586914 C4.97094727 0.0190918 6.27612305 0.02231445 7.62084961 0.02563477 C9.00952213 0.03399138 10.39819401 0.04245634 11.78686523 0.05102539 C13.17944179 0.05603873 14.57202005 0.06060193 15.96459961 0.06469727 C19.38456394 0.07653105 22.80444367 0.09301659 26.22436523 0.11352539 C29.08572913 5.83625319 24.27114911 17.83466488 22.39038086 23.72583008 C16.29419261 41.10856209 7.61916861 55.55897433 -4.77563477 69.11352539 C-5.49235352 69.91274414 -6.20907227 70.71196289 -6.94750977 71.53540039 C-17.63700264 82.86787028 -30.64922375 90.81943274 -44.77563477 97.11352539 C-45.83008789 97.59563477 -46.88454102 98.07774414 -47.97094727 98.57446289 C-76.14281025 110.46284497 -109.87165628 109.39687431 -138.08813477 98.42602539 C-152.43625058 92.49791144 -164.35092554 84.56071939 -175.77563477 74.11352539 C-176.57485352 73.39680664 -177.37407227 72.68008789 -178.19750977 71.94165039 C-193.56289149 57.44806337 -206.28434088 36.06128869 -209.77563477 15.11352539 C-199.54563477 15.11352539 -189.31563477 15.11352539 -178.77563477 15.11352539 C-177.62063477 17.50602539 -176.46563477 19.89852539 -175.27563477 22.36352539 C-163.65819682 45.88415471 -146.20903288 63.27919619 -120.95532227 71.85961914 C-98.24613523 78.99297554 -74.27832496 77.26491332 -52.77563477 67.11352539 C-29.21498338 54.66341529 -13.83459157 35.30109005 -5.77563477 10.11352539 C-4.99449367 7.11849698 -4.36237135 4.15388771 -3.77563477 1.11352539 C-2.77563477 0.11352539 -2.77563477 0.11352539 0 0 Z " fill="#8ED800" transform="translate(212.775634765625,133.886474609375)"/>
<path d="M0 0 C9.9 0 19.8 0 30 0 C30 9.9 30 19.8 30 30 C20.1 30 10.2 30 0 30 C0 20.1 0 10.2 0 0 Z " fill="#8DD900" transform="translate(210,210)"/>
<path d="M0 0 C9.9 0 19.8 0 30 0 C30 9.9 30 19.8 30 30 C20.1 30 10.2 30 0 30 C0 20.1 0 10.2 0 0 Z " fill="#8ED900" transform="translate(0,210)"/>
<path d="M0 0 C9.9 0 19.8 0 30 0 C30 9.9 30 19.8 30 30 C20.1 30 10.2 30 0 30 C0 20.1 0 10.2 0 0 Z " fill="#8DD900" transform="translate(210,0)"/>
<path d="M0 0 C9.9 0 19.8 0 30 0 C30 9.9 30 19.8 30 30 C20.1 30 10.2 30 0 30 C0 20.1 0 10.2 0 0 Z " fill="#8DD900" transform="translate(0,0)"/>
</svg>
