<?xml version="1.0" encoding="UTF-8"?>
<svg version="1.1" xmlns="http://www.w3.org/2000/svg" width="300" height="300">
<path d="M0 0 C99 0 198 0 300 0 C300 99 300 198 300 300 C201 300 102 300 0 300 C0 201 0 102 0 0 Z " fill="#FEFEFE" transform="translate(0,0)"/>
<path d="M0 0 C3.48108659 1.33815302 4.78298701 3.57807612 6.91428089 6.59154034 C7.65806995 7.62665752 8.40185902 8.66177471 9.16818714 9.72825909 C18.35178089 23.08472012 18.35178089 23.08472012 18.35178089 29.90404034 C19.01178089 29.90404034 19.67178089 29.90404034 20.35178089 29.90404034 C20.99908893 32.46617588 21.64467377 35.02872518 22.28928089 37.59154034 C22.56288441 38.67338604 22.56288441 38.67338604 22.84201527 39.77708721 C23.35439375 41.81728518 23.85559289 43.85985192 24.35178089 45.90404034 C24.5541637 46.73290752 24.75654652 47.56177471 24.96506214 48.41575909 C27.00075367 61.51409748 24.93270477 75.04386489 22.35178089 87.90404034 C22.17002308 88.84634502 21.98826527 89.78864971 21.80099964 90.75950909 C18.67328581 103.46185708 10.00123749 115.41753955 1.35178089 124.90404034 C0.69435902 125.63107159 0.03693714 126.35810284 -0.64040661 127.10716534 C-12.66214042 139.75653987 -28.92163743 147.57567052 -45.64821911 151.90404034 C-46.2585902 152.07983624 -46.8689613 152.25563213 -47.49782848 152.43675518 C-69.5204741 157.22233008 -95.2643886 151.65353193 -114.19704723 140.06346416 C-114.67593395 139.6808543 -115.15482067 139.29824444 -115.64821911 138.90404034 C-115.64821911 138.24404034 -115.64821911 137.58404034 -115.64821911 136.90404034 C-116.30821911 136.69779034 -116.96821911 136.49154034 -117.64821911 136.27904034 C-121.76428174 134.39251163 -125.1069894 131.69836055 -128.64821911 128.90404034 C-127.95037082 125.04153118 -126.50734101 123.79760286 -123.40603161 121.40794659 C-120.65741514 119.0563525 -118.45364016 116.26830338 -116.16384411 113.47825909 C-115.66368786 112.9587669 -115.16353161 112.43927471 -114.64821911 111.90404034 C-113.98821911 111.90404034 -113.32821911 111.90404034 -112.64821911 111.90404034 C-112.40705018 111.33866464 -112.16588125 110.77328894 -111.91740417 110.19078064 C-110.38953207 107.4379538 -108.56050075 105.55219131 -106.34125805 103.31619549 C-105.43700588 102.40052303 -104.53275372 101.48485058 -103.60109997 100.54143047 C-102.59633337 99.53417342 -101.59144651 98.52703632 -100.58645153 97.52000713 C-99.52985649 96.45415198 -98.47365797 95.38790363 -97.41782665 94.32129192 C-94.55089975 91.42815991 -91.67735504 88.54169227 -88.80174708 85.65719104 C-87.00609275 83.85567183 -85.21161732 82.05298642 -83.4175005 80.2499361 C-77.8056229 74.61072771 -72.18976742 68.97552627 -66.5680725 63.34610432 C-60.07443039 56.84348756 -53.59409342 50.32798498 -47.12495822 43.80098885 C-42.12483128 38.75769452 -37.1132979 33.72592494 -32.09288007 28.70282966 C-29.09358085 25.70143073 -26.0993753 22.69533281 -23.11689854 19.6772089 C-20.31380739 16.84126729 -17.49687652 14.01985925 -14.66852665 11.20911503 C-13.6317072 10.17384202 -12.60002574 9.1333945 -11.57387447 8.08754635 C-10.17517601 6.66358262 -8.75615679 5.25966334 -7.3361311 3.85696697 C-6.15229729 2.66873349 -6.15229729 2.66873349 -4.94454765 1.45649529 C-2.64821911 -0.09595966 -2.64821911 -0.09595966 0 0 Z " fill="#EC6C21" transform="translate(203.64821910858154,104.09595966339111)"/>
<path d="M0 0 C1.32958873 1.00497342 2.66140628 2.00705255 4 3 C2.98248612 6.05254164 1.88055887 7.28856084 -0.3984375 9.4609375 C-1.63588424 10.65009364 -2.84397458 11.86984353 -4.0390625 13.1015625 C-4.74804688 13.83117187 -5.45703125 14.56078125 -6.1875 15.3125 C-6.86167969 16.00988281 -7.53585938 16.70726562 -8.23046875 17.42578125 C-10 19 -10 19 -12 19 C-12.20625 19.556875 -12.4125 20.11375 -12.625 20.6875 C-14.15231658 23.25616879 -15.99774353 24.70293052 -18.31755733 26.54285431 C-20.11278654 28.09768323 -21.57712175 29.74821995 -23.10658264 31.56433105 C-27.38273595 36.51212659 -31.97524213 41.10785407 -36.60717773 45.72070312 C-37.55422614 46.66746879 -38.50105308 47.61445603 -39.44767761 48.56164551 C-41.99453553 51.108788 -44.54444441 53.65285553 -47.09495044 56.19634438 C-49.76864435 58.86374774 -52.43946896 61.53402108 -55.11061096 64.20397949 C-60.15868746 69.24895938 -65.20930552 74.29138676 -70.26086241 79.33288145 C-76.01623052 85.07703632 -81.768728 90.82406237 -87.52099693 96.57132053 C-99.34416048 108.38405755 -111.17088868 120.19321893 -123 132 C-134.47159322 126.87368396 -141.69865587 109.29293037 -146.15185547 98.26660156 C-153.21611906 79.38789599 -152.76722938 54.0753144 -144.94921875 35.50390625 C-144.0339596 33.63451593 -143.02200562 31.81323578 -142 30 C-141.566875 28.88625 -141.13375 27.7725 -140.6875 26.625 C-132.75004879 9.57417888 -115.76731502 -7.1730443 -98.4375 -14.5078125 C-94.97939543 -15.75243203 -91.50401324 -16.8923612 -88 -18 C-87.175 -18.30808594 -86.35 -18.61617187 -85.5 -18.93359375 C-56.54675771 -29.73935739 -22.91211873 -18.30132084 0 0 Z " fill="#323232" transform="translate(220,66)"/>
<path d="M0 0 C0 3 0 3 -1.35546875 4.6484375 C-2.26232422 5.50308594 -2.26232422 5.50308594 -3.1875 6.375 C-3.77917969 6.93960938 -4.37085938 7.50421875 -4.98046875 8.0859375 C-5.64691406 8.71757813 -6.31335938 9.34921875 -7 10 C-8.66903378 11.66429619 -10.33538349 13.33128569 -12 15 C-22 25 -22 25 -32 35 C-31.67 35.99 -31.34 36.98 -31 38 C-27.07699505 35.64619703 -26.16142685 33.35535069 -25 29 C-23.35 28.67 -21.7 28.34 -20 28 C-20.66 28.33 -21.32 28.66 -22 29 C-22 29.66 -22 30.32 -22 31 C-21.34 31.33 -20.68 31.66 -20 32 C-51.35 63.35 -82.7 94.7 -115 127 C-115.33 126.01 -115.66 125.02 -116 124 C-118.50447516 122.78130071 -118.50447516 122.78130071 -121 122 C-116.18643854 116.20493664 -111.01366966 110.87780734 -105.67749023 105.56396484 C-104.29833939 104.18459496 -104.29833939 104.18459496 -102.8913269 102.77735901 C-100.38746132 100.27320829 -97.88053907 97.77213854 -95.37303042 95.27163649 C-92.74037491 92.64527081 -90.11058786 90.016036 -87.48048401 87.38711548 C-82.50207768 82.41180934 -77.5211307 77.43905492 -72.53924853 72.46722949 C-66.88493617 66.82408632 -61.23345322 61.17811323 -55.58221519 55.53189158 C-45.91843174 45.87678177 -36.25253945 36.22378793 -26.58427429 26.57316589 C-25.04004569 25.03173544 -23.49617112 23.48995018 -21.95275688 21.94770432 C-20.77256759 20.77056864 -19.59023794 19.59556598 -18.4038868 18.42464066 C-16.35055039 16.39500085 -14.50280855 14.38187009 -12.6875 12.125 C-10.04051847 8.87106729 -6.9604302 6.22453348 -3.76953125 3.515625 C-1.91655093 1.96792368 -1.91655093 1.96792368 0 0 Z " fill="#F8F6F3" transform="translate(218,76)"/>
<path d="M0 0 C0 3 0 3 -1.58886719 4.89770508 C-2.31750977 5.59790771 -3.04615234 6.29811035 -3.796875 7.01953125 C-4.5909375 7.79490234 -5.385 8.57027344 -6.203125 9.36914062 C-7.04359375 10.17544922 -7.8840625 10.98175781 -8.75 11.8125 C-16.10474182 18.80851748 -16.10474182 18.80851748 -22 27 C-21.01 27.33 -20.02 27.66 -19 28 C-19.41314562 32.44926052 -22.50461527 34.84100104 -25.5625 37.75 C-26.08263672 38.25660156 -26.60277344 38.76320312 -27.13867188 39.28515625 C-28.41910084 40.53034405 -29.70867554 41.76611502 -31 43 C-31.495 41.515 -31.495 41.515 -32 40 C-34.50447516 38.78130071 -34.50447516 38.78130071 -37 38 C-32.75789864 32.93288701 -28.32282911 28.18776629 -23.6328125 23.53515625 C-22.95322479 22.85698349 -22.27363708 22.17881073 -21.57345581 21.48008728 C-19.42632998 19.33850859 -17.27573373 17.20045471 -15.125 15.0625 C-13.65862227 13.60114411 -12.1924742 12.13955774 -10.7265625 10.67773438 C-7.15369 7.11582065 -3.57770316 3.55706135 0 0 Z " fill="#EFEEEC" transform="translate(134,160)"/>
<path d="M0 0 C2.2421875 0.94140625 2.2421875 0.94140625 3.5546875 3.00390625 C3.895 3.96296875 3.895 3.96296875 4.2421875 4.94140625 C2.9221875 4.28140625 1.6021875 3.62140625 0.2421875 2.94140625 C-0.0878125 4.26140625 -0.4178125 5.58140625 -0.7578125 6.94140625 C-1.4178125 6.61140625 -2.0778125 6.28140625 -2.7578125 5.94140625 C-5.87893285 7.69916555 -5.87893285 7.69916555 -7.2578125 10.56640625 C-7.7528125 11.35015625 -8.2478125 12.13390625 -8.7578125 12.94140625 C-9.7478125 12.94140625 -10.7378125 12.94140625 -11.7578125 12.94140625 C-11.7578125 13.93140625 -11.7578125 14.92140625 -11.7578125 15.94140625 C-12.7478125 15.94140625 -13.7378125 15.94140625 -14.7578125 15.94140625 C-15.0878125 16.93140625 -15.4178125 17.92140625 -15.7578125 18.94140625 C-15.7578125 18.28140625 -15.7578125 17.62140625 -15.7578125 16.94140625 C-17.0778125 17.27140625 -18.3978125 17.60140625 -19.7578125 17.94140625 C-16.06954027 13.45566976 -12.19789686 9.1488022 -8.1953125 4.94140625 C-7.50731567 4.18380005 -7.50731567 4.18380005 -6.80541992 3.41088867 C-4.49101373 1.02357475 -3.40339588 -0.07231011 0 0 Z " fill="#EC7129" transform="translate(203.7578125,104.05859375)"/>
<path d="M0 0 C0 3 0 3 -1.35546875 4.6484375 C-2.26232422 5.50308594 -2.26232422 5.50308594 -3.1875 6.375 C-3.77917969 6.93960938 -4.37085938 7.50421875 -4.98046875 8.0859375 C-5.64691406 8.71757813 -6.31335938 9.34921875 -7 10 C-8.6690478 11.66428212 -10.33537308 13.33129608 -12 15 C-19 22 -26 29 -33 36 C-33.66 35.67 -34.32 35.34 -35 35 C-31.25651042 31.25651042 -27.51302083 27.51302083 -23.76953125 23.76953125 C-23.12282471 23.12209961 -22.47611816 22.47466797 -21.80981445 21.80761719 C-20.2639012 20.2635808 -18.71080442 18.72674228 -17.15625 17.19140625 C-14.88985127 14.96093605 -14.88985127 14.96093605 -12.6875 12.125 C-10.04051847 8.87106729 -6.9604302 6.22453348 -3.76953125 3.515625 C-1.91655093 1.96792368 -1.91655093 1.96792368 0 0 Z " fill="#E6E6E6" transform="translate(218,76)"/>
<path d="M0 0 C0 0.99 0 1.98 0 3 C0.66 3.66 1.32 4.32 2 5 C0.35 5.33 -1.3 5.66 -3 6 C-2.34 6.66 -1.68 7.32 -1 8 C-1.66 8 -2.32 8 -3 8 C-2.938125 8.78375 -2.87625 9.5675 -2.8125 10.375 C-2.874375 11.24125 -2.93625 12.1075 -3 13 C-6 15 -6 15 -10 15 C-10 14.34 -10 13.68 -10 13 C-10.66 12.67 -11.32 12.34 -12 12 C-8.04 8.04 -4.08 4.08 0 0 Z " fill="#EB7637" transform="translate(105,200)"/>
<path d="M0 0 C11.88 0 23.76 0 36 0 C32.68316376 3.31683624 30.89927717 3.98920867 26.09375 4.046875 C24.56170122 3.96116715 23.03038537 3.86153441 21.5 3.75 C20.70352051 3.6991626 19.90704102 3.6483252 19.08642578 3.59594727 C12.64873906 3.14371307 6.32821782 2.27805183 0 1 C0 0.67 0 0.34 0 0 Z " fill="#F9D3C4" transform="translate(122,256)"/>
<path d="M0 0 C0.33 0.99 0.66 1.98 1 3 C1.66 3.33 2.32 3.66 3 4 C2.42655063 6.86724686 2.1385485 7.8614515 0 10 C-2.32716 10.37400786 -4.66117862 10.70764733 -7 11 C-7.99 11.495 -7.99 11.495 -9 12 C-8.74204721 8.5176374 -7.78438795 7.81191289 -5.0625 5.4375 C-4.051875 4.633125 -3.04125 3.82875 -2 3 C-1.34 2.01 -0.68 1.02 0 0 Z " fill="#EA793E" transform="translate(84,221)"/>
<path d="M0 0 C0.99 0 1.98 0 3 0 C4.21744727 3.65234182 3.64202228 4.62953322 2 8 C0 10 0 10 -2.625 10.125 C-3.40875 10.08375 -4.1925 10.0425 -5 10 C-5 9.34 -5 8.68 -5 8 C-5.66 7.67 -6.32 7.34 -7 7 C-5.71034824 5.62437146 -4.37310707 4.29233607 -3 3 C-2.34 3 -1.68 3 -1 3 C-0.67 2.01 -0.34 1.02 0 0 Z " fill="#EC712F" transform="translate(92,213)"/>
<path d="M0 0 C0.33 1.32 0.66 2.64 1 4 C0.34 4 -0.32 4 -1 4 C-1 4.99 -1 5.98 -1 7 C-1.99 7.495 -1.99 7.495 -3 8 C-3.99 9.485 -3.99 9.485 -5 11 C-5.33 11.33 -5.66 11.66 -6 12 C-6 12.33 -6 12.66 -6 13 C-8.31 13.33 -10.62 13.66 -13 14 C-8.88380164 9.08064098 -4.59589638 4.47352044 0 0 Z " fill="#E97736" transform="translate(177,128)"/>
<path d="M0 0 C1.04449911 3.13349732 0.93423645 3.98968256 0 7 C0 6.01 0 5.02 0 4 C-0.66 4 -1.32 4 -2 4 C-1.67 5.32 -1.34 6.64 -1 8 C-2.65 8.33 -4.3 8.66 -6 9 C-6 10.98 -6 12.96 -6 15 C-6.66 15 -7.32 15 -8 15 C-8 13.68 -8 12.36 -8 11 C-8.66 10.67 -9.32 10.34 -10 10 C-6.7 6.7 -3.4 3.4 0 0 Z " fill="#EC7E46" transform="translate(116,189)"/>
<path d="M0 0 C0.89694794 3.58779175 1.08304117 6.34618837 1 10 C0.01 9.34 -0.98 8.68 -2 8 C-2 7.34 -2 6.68 -2 6 C-2.99 6.66 -3.98 7.32 -5 8 C-5 9.32 -5 10.64 -5 12 C-5.66 12 -6.32 12 -7 12 C-7 11.34 -7 10.68 -7 10 C-7.66 9.67 -8.32 9.34 -9 9 C-6.03 6.03 -3.06 3.06 0 0 Z " fill="#EB7B3E" transform="translate(142,163)"/>
<path d="M0 0 C0 2 0 2 -1.375 3.5 C-1.91125 3.995 -2.4475 4.49 -3 5 C-3.66 5.66 -4.32 6.32 -5 7 C-6.32 7 -7.64 7 -9 7 C-9 6.34 -9 5.68 -9 5 C-9.99 4.67 -10.98 4.34 -12 4 C-10.3767313 3.3291288 -8.75132422 2.66342971 -7.125 2 C-6.22007812 1.62875 -5.31515625 1.2575 -4.3828125 0.875 C-2 0 -2 0 0 0 Z " fill="#F7E8DE" transform="translate(180,248)"/>
<path d="M0 0 C4.75 0.875 4.75 0.875 7 2 C6.67 3.65 6.34 5.3 6 7 C3 7 3 7 1 6 C0.375 2.9375 0.375 2.9375 0 0 Z " fill="#F8F7F4" transform="translate(95,198)"/>
<path d="M0 0 C2.31 0 4.62 0 7 0 C7 0.99 7 1.98 7 3 C6.34 3.66 5.68 4.32 5 5 C5.33 5.66 5.66 6.32 6 7 C3.525 6.01 3.525 6.01 1 5 C1.33 4.34 1.66 3.68 2 3 C1.34 2.67 0.68 2.34 0 2 C0 1.34 0 0.68 0 0 Z " fill="#EF7433" transform="translate(92,241)"/>
<path d="M0 0 C-0.55550695 3.59905908 -1.74887248 4.99909799 -4.5625 7.25 C-5.20316406 7.77078125 -5.84382812 8.2915625 -6.50390625 8.828125 C-6.99761719 9.21484375 -7.49132812 9.6015625 -8 10 C-8.33 9.01 -8.66 8.02 -9 7 C-8.34 7 -7.68 7 -7 7 C-6.67 6.01 -6.34 5.02 -6 4 C-2.45714286 0 -2.45714286 0 0 0 Z " fill="#414141" transform="translate(174,118)"/>
<path d="M0 0 C0.33 0 0.66 0 1 0 C1.95619733 3.99795892 2.1039592 7.70803922 2.0625 11.8125 C2.05347656 12.97394531 2.04445312 14.13539063 2.03515625 15.33203125 C2.02355469 16.21246094 2.01195312 17.09289062 2 18 C1.67 18 1.34 18 1 18 C1 15.36 1 12.72 1 10 C0.34 10 -0.32 10 -1 10 C-0.67 6.7 -0.34 3.4 0 0 Z " fill="#EC763B" transform="translate(227,150)"/>
<path d="M0 0 C1.258125 -0.020625 2.51625 -0.04125 3.8125 -0.0625 C4.52019531 -0.07410156 5.22789063 -0.08570313 5.95703125 -0.09765625 C8 0 8 0 11 1 C11 1.66 11 2.32 11 3 C11.66 3.33 12.32 3.66 13 4 C8.28596212 3.52060632 4.33420699 3.03165952 0 1 C0 0.67 0 0.34 0 0 Z " fill="#EF7F48" transform="translate(109,252)"/>
<path d="M0 0 C1 3 1 3 1 5 C0.34 5 -0.32 5 -1 5 C-1 5.99 -1 6.98 -1 8 C-0.34 8.33 0.32 8.66 1 9 C0.01 9 -0.98 9 -2 9 C-2 8.01 -2 7.02 -2 6 C-3.32 6.33 -4.64 6.66 -6 7 C-4.02 4.69 -2.04 2.38 0 0 Z " fill="#EC7C42" transform="translate(126,179)"/>
<path d="M0 0 C3 0 3 0 4.75 1.125 C6 3 6 3 5.6875 6.1875 C5.460625 7.115625 5.23375 8.04375 5 9 C4.34 9 3.68 9 3 9 C2.01 6.03 1.02 3.06 0 0 Z " fill="#EB712F" transform="translate(216,127)"/>
<path d="M0 0 C2.375 0.25 2.375 0.25 5 1 C6.3125 3.0625 6.3125 3.0625 7 5 C5.68 4.34 4.36 3.68 3 3 C2.67 4.32 2.34 5.64 2 7 C1.34 6.67 0.68 6.34 0 6 C0 4 0 2 0 0 Z " fill="#EC7F47" transform="translate(201,104)"/>
<path d="M0 0 C-0.33 0.99 -0.66 1.98 -1 3 C-1.33 2.34 -1.66 1.68 -2 1 C-2.66 1 -3.32 1 -4 1 C-4 1.66 -4 2.32 -4 3 C-7.875 1.25 -7.875 1.25 -9 -1 C-5.38055101 -2.34053666 -3.42632833 -1.61798838 0 0 Z " fill="#EB7337" transform="translate(86,234)"/>
<path d="M0 0 C0.66 1.32 1.32 2.64 2 4 C1.01 4.66 0.02 5.32 -1 6 C-2.35251497 7.31387169 -3.68945377 8.64426252 -5 10 C-5.66 9.67 -6.32 9.34 -7 9 C-4.69 6.03 -2.38 3.06 0 0 Z " fill="#F9E1D6" transform="translate(213,218)"/>
<path d="M0 0 C0.66 0 1.32 0 2 0 C0.61918777 4.1424367 -1.59825558 5.32203099 -5 8 C-5.33 7.34 -5.66 6.68 -6 6 C-5.34 6 -4.68 6 -4 6 C-4.66 4.35 -5.32 2.7 -6 1 C-3.03 1.495 -3.03 1.495 0 2 C0 1.34 0 0.68 0 0 Z " fill="#F8EBE0" transform="translate(86,217)"/>
<path d="M0 0 C0.99 0.66 1.98 1.32 3 2 C2.67 3.98 2.34 5.96 2 8 C1.01 8.33 0.02 8.66 -1 9 C-2.25541557 5.23375329 -1.37061958 3.62811066 0 0 Z " fill="#F6E4DA" transform="translate(225,192)"/>
<path d="M0 0 C0.33 1.65 0.66 3.3 1 5 C-1.875 5.125 -1.875 5.125 -5 5 C-5.66 4.34 -6.32 3.68 -7 3 C-2.25 0 -2.25 0 0 0 Z " fill="#ED722D" transform="translate(124,185)"/>
<path d="M0 0 C2.475 0.99 2.475 0.99 5 2 C3.35 3.65 1.7 5.3 0 7 C-0.66 5.68 -1.32 4.36 -2 3 C-1.34 2.01 -0.68 1.02 0 0 Z " fill="#414141" transform="translate(187,100)"/>
<path d="M0 0 C0.99 0.33 1.98 0.66 3 1 C1.8141763 4.37503669 0.72426311 6.64722731 -2 9 C-2 8.34 -2 7.68 -2 7 C-2.66 6.67 -3.32 6.34 -4 6 C-3.34 5.34 -2.68 4.68 -2 4 C-1.01 4 -0.02 4 1 4 C1 3.34 1 2.68 1 2 C0.34 1.67 -0.32 1.34 -1 1 C-0.67 0.67 -0.34 0.34 0 0 Z " fill="#EA7433" transform="translate(213,212)"/>
<path d="M0 0 C1.33332095 2.6666419 0.67102033 4.16680303 0 7 C-1.65 6.67 -3.3 6.34 -5 6 C-3.35 4.02 -1.7 2.04 0 0 Z " fill="#ED7B3C" transform="translate(132,173)"/>
<path d="M0 0 C0.33 0.66 0.66 1.32 1 2 C1.99 2.33 2.98 2.66 4 3 C3.67 4.32 3.34 5.64 3 7 C2.01 7 1.02 7 0 7 C0.33 6.01 0.66 5.02 1 4 C-0.32 3.67 -1.64 3.34 -3 3 C-2.01 2.01 -1.02 1.02 0 0 Z " fill="#E87536" transform="translate(163,142)"/>
<path d="M0 0 C0.99 1.32 1.98 2.64 3 4 C2.01 4 1.02 4 0 4 C-0.33 4.99 -0.66 5.98 -1 7 C-1 6.34 -1 5.68 -1 5 C-2.32 5.33 -3.64 5.66 -5 6 C-3.35 4.02 -1.7 2.04 0 0 Z " fill="#ED7738" transform="translate(189,116)"/>
<path d="M0 0 C0.33 1.32 0.66 2.64 1 4 C-0.98 4.99 -0.98 4.99 -3 6 C-3.66 5.01 -4.32 4.02 -5 3 C-3.35 2.01 -1.7 1.02 0 0 Z " fill="#3D3D3D" transform="translate(98,192)"/>
<path d="M0 0 C3 2 3 2 4 5 C3.01 6.485 3.01 6.485 2 8 C1.34 8 0.68 8 0 8 C0.33 6.02 0.66 4.04 1 2 C0.34 1.67 -0.32 1.34 -1 1 C-0.67 0.67 -0.34 0.34 0 0 Z " fill="#EB702E" transform="translate(179,126)"/>
<path d="M0 0 C0.66 1.32 1.32 2.64 2 4 C1.34 4.66 0.68 5.32 0 6 C-0.71408334 7.98356483 -1.38617742 9.98315437 -2 12 C-3.12377697 8.69564916 -2.89554742 6.9493138 -1.5625 3.75 C-1.27503906 3.04359375 -0.98757812 2.3371875 -0.69140625 1.609375 C-0.46324219 1.07828125 -0.23507813 0.5471875 0 0 Z " fill="#4D4D4D" transform="translate(76,99)"/>
<path d="M0 0 C2.64 0.33 5.28 0.66 8 1 C4.5647952 3.29013653 3.014669 3.17842973 -1 3 C-0.67 2.01 -0.34 1.02 0 0 Z " fill="#FCF7F5" transform="translate(123,257)"/>
<path d="M0 0 C1.32 0 2.64 0 4 0 C4 1.32 4 2.64 4 4 C2.35 4.33 0.7 4.66 -1 5 C-0.67 3.35 -0.34 1.7 0 0 Z " fill="#EE6E27" transform="translate(80,225)"/>
<path d="M0 0 C0.99 0.33 1.98 0.66 3 1 C2.67 2.32 2.34 3.64 2 5 C2.99 5.33 3.98 5.66 5 6 C4.34 6.66 3.68 7.32 3 8 C2.01 8 1.02 8 0 8 C0 5.33333333 0 2.66666667 0 0 Z " fill="#F8F3EC" transform="translate(73,228)"/>
<path d="M0 0 C0.33 0.99 0.66 1.98 1 3 C1.66 3.66 2.32 4.32 3 5 C0.625 5.625 0.625 5.625 -2 6 C-2.66 5.34 -3.32 4.68 -4 4 C-2.68 2.68 -1.36 1.36 0 0 Z " fill="#EA8047" transform="translate(97,208)"/>
<path d="M0 0 C0.66 1.32 1.32 2.64 2 4 C1.01 4 0.02 4 -1 4 C-0.67 5.32 -0.34 6.64 0 8 C-0.99 7.67 -1.98 7.34 -3 7 C-1.125 1.125 -1.125 1.125 0 0 Z " fill="#F9DED1" transform="translate(219,208)"/>
<path d="M0 0 C0.66 1.32 1.32 2.64 2 4 C0.35 5.32 -1.3 6.64 -3 8 C-2.37240135 5.07120629 -1.41377341 2.63904371 0 0 Z " fill="#3D3D3D" transform="translate(140,149)"/>
<path d="M0 0 C1.32 0 2.64 0 4 0 C4 2.97 4 5.94 4 9 C2.50596946 6.01193893 1.20689255 3.10343799 0 0 Z " fill="#F9DCD1" transform="translate(219,125)"/>
<path d="M0 0 C0 3 0 3 -1 5 C-2.97888961 5.72693904 -4.97954558 6.39816251 -7 7 C-4.78071806 4.09197539 -3.07030857 2.04687238 0 0 Z " fill="#494949" transform="translate(105,62)"/>
</svg>
